<svg width="780" height="683" viewBox="0 0 780 683" fill="none" xmlns="http://www.w3.org/2000/svg">
<path d="M368.135 281.017C369.422 280.783 370.376 281.907 371.295 282.696C373.75 284.804 376.014 286.559 378.245 288.959C378.785 289.539 380.909 291.67 379.906 292.442C379.38 292.846 377.677 292.676 377.022 292.592L371.046 292.156C370.186 292.068 369.063 291.904 368.538 291.144C368.047 290.433 367.826 286.277 367.808 285.221C367.786 283.873 367.086 282.071 368.135 281.017Z" fill="#081A41"/>
<path d="M353.97 272.29C355.372 271.959 357.118 273.414 358.345 274.062C359.75 274.805 363.851 276.771 364.529 278.017C364.805 278.53 365.059 281.973 365.069 282.729L365.463 288.46C365.56 289.203 365.716 290.436 365.134 291.017C364.616 291.537 363.515 291.45 362.828 291.45H360.338L354.361 290.954C353.485 290.932 351.587 291.116 351.819 289.696C351.896 289.238 352.319 288.587 352.601 288.221C353.968 286.437 354.919 286.731 356.851 286.923L360.836 287.212C361.735 287.189 363.801 286.87 363.284 285.48C363.032 284.8 361.941 284.184 361.334 283.833L354.892 280.823C353.383 279.609 353.734 277.446 353.572 275.752C353.452 274.496 352.997 273.302 353.97 272.29Z" fill="#081A41"/>
<path d="M340.665 284.281C341.651 284.114 344.336 284.697 345.396 284.942C346.659 285.233 350.376 285.365 349.951 287.219C349.455 289.382 347.446 290.488 345.396 290.449L341.412 290.182L339.669 289.978C337.896 289.856 338.023 290.08 335.934 289.706C335.966 289.138 335.961 288.742 336.225 288.211C336.791 287.082 339.4 284.496 340.665 284.281Z" fill="#081A41"/>
<path d="M325.724 282.143C327.382 281.837 331.043 282.769 332.945 282.99C333.615 283.068 335.03 283.25 335.426 283.853C335.986 284.705 334.958 285.846 334.46 286.467C332.851 288.462 332.517 289.557 329.708 289.447L322.736 288.959C322.093 288.956 320.878 288.991 320.405 288.497C319.79 287.855 320.587 286.97 320.997 286.467C322.262 284.919 323.859 282.923 325.724 282.143Z" fill="#081A41"/>
<path d="M309.537 279.95C311.552 279.4 315.658 280.13 317.755 280.591C318.445 280.743 320.098 281.054 320.492 281.645C320.94 282.317 320.32 283.195 319.922 283.726C319.05 284.884 317.058 287.418 315.763 287.954C314.603 288.38 313.915 288.061 312.775 287.954L306.3 287.443C305.613 287.386 303.708 287.206 303.516 286.397C303.342 285.654 304.345 284.702 304.811 284.224C306.066 282.928 308.011 280.77 309.537 279.95Z" fill="#081A41"/>
<path d="M295.841 276.634C297.4 276.447 301.068 277.493 302.814 277.845C303.419 277.967 304.684 278.146 305.053 278.667C305.615 279.462 304.627 280.643 304.154 281.234C303.023 282.644 300.538 286.04 298.83 286.382C297.816 286.584 296.596 286.27 295.592 286.068L289.616 284.555C288.742 284.269 286.7 283.793 287.168 282.48C287.405 281.814 288.555 280.932 289.118 280.489C290.901 279.091 293.67 277.262 295.841 276.634Z" fill="#081A41"/>
<path d="M286.877 268.682C287.419 268.725 287.606 268.687 288.112 268.991C288.742 269.368 290.856 272.023 291.461 272.761C291.887 273.282 292.586 274.01 292.42 274.745C292.241 275.527 291 276.168 290.363 276.584C289.076 277.428 287.805 278.276 286.628 279.273C285.821 279.958 284.728 281.039 283.639 281.166C282.579 281.291 281.655 280.601 280.9 279.943C279.244 278.493 277.563 276.499 276.612 274.506C276.268 273.781 275.636 272.353 276.007 271.57C276.445 270.641 278.014 270.534 278.908 270.367L286.877 268.682Z" fill="#081A41"/>
<path d="M288.772 260.382C289.262 259.326 291.374 260.452 292.106 260.763L309.288 267.356L317.755 270.282L324.977 273.155L331.7 275.49L340.167 278.841C341.678 279.442 343.472 279.818 344.649 280.984H342.906L327.965 278.562L318.502 277.389L304.308 274.61L297.087 272.901C292.95 271.65 290.926 268.109 289.539 264.289C289.242 263.469 288.408 261.164 288.772 260.382Z" fill="#081A41"/>
<path d="M340.543 266.292C341.584 265.924 342.189 266.287 343.155 266.723L347.887 268.809C348.741 269.188 349.635 269.482 350.193 270.294C350.663 270.98 350.698 272.619 350.805 273.509C350.92 274.491 351.415 277.436 350.549 277.984C349.692 278.527 347.105 277.391 346.143 277.082C344.941 276.698 341.567 275.854 340.772 275.091C340.215 274.555 340.13 273.741 340.043 273.011C339.888 272.073 339.814 267.833 340.043 267.045C340.214 266.552 340.244 266.631 340.543 266.292Z" fill="#081A41"/>
<path d="M327.153 260.302C328.383 259.801 329.785 260.626 330.953 261.062C332.4 261.603 336.118 262.869 336.907 264.085C337.383 264.815 337.418 265.692 337.428 266.532V271.017C337.425 272.233 337.632 273.661 335.929 273.424L329.21 270.835C328.389 270.466 327.467 270.08 327.011 269.25C326.553 268.41 326.72 265.385 326.72 264.289C326.72 263.088 326.446 261.291 327.153 260.302Z" fill="#081A41"/>
<path d="M273.258 253.579C274.483 253.128 275.22 253.537 276.418 253.853C278.3 254.349 283.069 255.615 284.207 257.115C284.795 257.892 285.101 260.03 285.355 261.05C285.696 262.405 286.869 265.027 285.562 266.103C285.019 266.549 283.607 266.826 282.892 266.978L277.414 268.007C276.453 268.166 275.32 268.515 274.553 267.7C273.98 267.09 273.738 265.615 273.581 264.787C273.006 261.74 272.966 260.857 272.932 257.81C272.914 256.425 272.222 254.693 273.258 253.579Z" fill="#081A41"/>
<path d="M313.455 254.82C314.717 254.312 316.107 255.221 317.257 255.742C318.624 256.357 322.519 257.788 323.298 258.859C323.729 259.452 323.722 260.105 323.732 260.8V265.784C323.732 266.277 323.789 267.234 323.478 267.628C323.047 268.171 322.066 267.982 321.49 267.837L316.759 266.198C315.82 265.869 313.776 265.246 313.208 264.483C312.703 263.803 312.777 262.851 312.775 262.046C312.772 260.245 312.424 256.198 313.455 254.82Z" fill="#081A41"/>
<path d="M300.401 249.846C301.995 249.32 305.877 251.336 307.545 251.974C308.277 252.253 309.353 252.548 309.851 253.173C310.329 253.773 310.28 254.593 310.284 255.318V261.548C310.267 262.704 310.262 263.661 308.785 263.457L303.063 261.398C302.234 261.067 301.305 260.77 300.752 260.02C299.96 258.941 300.077 257.1 300.075 255.817C300.072 254.165 299.228 251.094 300.401 249.846Z" fill="#081A41"/>
<path d="M287.31 244.85C288.657 244.279 290.303 245.164 291.608 245.6C292.808 246.001 295.961 246.868 296.73 247.691C297.33 248.331 297.323 249.017 297.335 249.836V256.564C297.336 257.13 297.427 258.171 296.937 258.55C296.362 258.996 295.209 258.588 294.596 258.391L288.869 256.235C288.164 255.889 287.576 255.532 287.203 254.81C286.675 253.783 286.877 249.709 286.877 248.341C286.877 247.21 286.63 245.802 287.31 244.85Z" fill="#081A41"/>
<path d="M273.355 239.866C274.361 239.45 275.15 239.772 276.169 240.026C278.126 240.512 283.124 241.523 284.03 243.367C284.598 244.523 284.292 245.662 284.157 246.846V250.833C284.135 251.471 284.269 252.612 283.562 252.916C282.952 253.18 281.528 252.689 280.9 252.492L276.169 251.047C275.404 250.828 273.821 250.387 273.238 249.911C271.821 248.757 272.662 244.182 272.682 242.361C272.695 241.327 272.678 240.693 273.355 239.866Z" fill="#081A41"/>
<path fill-rule="evenodd" clip-rule="evenodd" d="M484.105 0.0666631C488.947 -0.543152 493.623 3.10418 493.635 8.00293C493.69 8.68885 493.711 9.54371 493.635 10.2097C492.969 13.5859 490.324 16.1098 486.958 16.828C484.116 17.4318 483.451 16.4392 482.28 17.1792C481.711 17.5383 479.804 19.7909 479.199 20.4412C477.043 22.7481 475.967 23.8757 473.102 25.3943C468.679 27.7414 465.245 27.4625 460.469 27.4625C428.058 27.4625 391.653 28.9304 380.269 36.7116C379.311 37.3669 378.628 38.7675 378.055 39.7717L374.816 45.5029L370.112 54.2245C369.756 54.9347 368.576 56.9653 368.757 57.6758C368.946 58.4157 369.693 58.4059 370.298 58.3511L374.283 57.8203L461.938 51.2343C462.343 51.2343 462.904 51.202 463.396 51.2892L461.58 57.465C461.533 57.4645 461.486 57.4639 461.44 57.4639C432.163 58.3009 390.532 61.2634 365.323 66.3474C363.742 67.0824 362.544 70.12 361.77 71.6675L354.673 85.8712L352.416 90.6057C352.195 91.0741 351.819 91.9638 352.416 92.2629C352.922 92.4796 353.681 92.1033 354.112 91.9214L358.345 90.045L414.624 66.4098L459.946 63.9428C459.969 63.9426 459.992 63.9416 460.016 63.9412C458.885 69.6345 458.075 75.324 457.492 81.0726L341.163 138.415C338.466 139.912 337.249 140.047 336.347 143.184C336.158 143.897 335.785 144.928 336.347 145.566C336.828 146.137 337.515 146.01 338.175 145.963L342.906 145.449C386.617 141.245 418.123 121.885 456.834 101.36V102.787C457.065 106.164 457.37 109.51 457.758 112.832L416.118 136.942C414.764 137.802 413.369 138.455 412.632 139.945C414.572 140.184 414.781 139.947 416.616 139.945L424.834 139.446L430.811 139.175L433.55 138.948H437.285C441.197 138.943 442.592 137.171 445.752 135.133L456.958 128.377L459.914 126.708C460.793 131.191 461.856 135.655 463.127 140.124C463.641 141.931 464.21 143.739 464.827 145.542L340.914 153.331C339.425 153.525 333.683 154.091 332.706 154.56C331.016 155.372 331.519 156.922 331.658 158.384L331.845 160.876L334.258 178.818C334.445 180.079 334.861 183.876 335.789 184.612C336.237 184.965 336.646 184.933 337.179 184.893L341.163 184.37C381.895 179.269 418.81 175.893 458.515 175.513C462.549 175.481 466.466 177.189 469.452 179.824L473.004 183.67C473.569 184.301 474.387 185.32 475.178 185.682C475.715 185.855 477.219 185.697 477.905 185.656C479.119 185.7 480.138 185.937 481.267 186.381C482.279 186.779 483.214 187.392 483.991 188.146C488.567 192.586 486.986 200.51 480.794 202.738C479.904 203.06 478.388 203.357 477.444 203.312C473.171 203.106 469.659 200.149 468.986 195.945C468.898 195.394 468.79 194.846 468.827 194.287C468.882 193.488 469.361 191.551 469.187 190.966C468.951 190.171 467.367 188.559 466.753 187.878C463.857 184.675 462.163 182.743 457.535 182.773C417.943 183.152 379.92 187.28 340.416 192.419C339.697 192.523 338.561 192.603 337.933 193.004C336.576 193.939 337.669 197.327 337.933 198.753L340.613 213.206C340.909 214.599 341.148 217.674 342.436 218.396C343.673 219.091 348.427 218.209 350.128 218.19C359.504 217.727 468.734 206.163 498.612 211.86L498.633 212.266V218.505L431.807 221.18L427.075 221.678C428.36 222.877 432.494 223.151 434.297 223.173L498.633 224.043V240.616H466.171L462.436 240.37C461.963 240.372 461.214 240.36 460.887 240.766C460.272 241.533 462.08 244.516 462.498 245.351L469.513 258.558C476.077 270.015 483.389 281.772 493.564 290.381C496.148 292.567 499.251 294.578 502.279 296.093L505.054 297.356C504.262 299.333 504.96 300.315 504.73 302.127C504.623 302.983 504.358 303.667 504.098 304.321C502.114 303.773 499.341 302.614 498.046 301.976C492 299.001 488.401 296.501 483.603 291.699C474.949 283.04 465.773 268.346 460.257 257.312L454.794 246.348L451.482 238.882C450.493 237.394 448.364 237.125 446.748 236.721L435.293 233.921L431.558 233.048C431.099 232.986 430.367 232.904 430.173 233.47C430.019 233.911 430.402 234.516 430.614 234.885L432.636 237.875L441.352 250.833C447.943 260.723 457.705 274.291 465.357 283.227C471.291 290.157 478.055 297.109 486.093 301.59C490.411 303.997 494.981 305.973 499.789 307.176L503.587 307.951C503.846 309.123 504.628 310.215 504.598 311.619C504.571 313.159 503.577 314.262 503.454 315.73C502.594 315.562 501.712 315.375 500.785 315.175C494.973 313.919 488.837 311.906 483.603 309.065C471.374 302.432 462.399 292.26 453.917 281.483C447.709 273.594 441.775 265.418 436.207 257.062C430.178 248.017 424.418 238.854 417.894 230.15L414.026 225.167C413.377 224.354 412.515 223.168 411.636 222.637C410.899 222.196 410.221 222.186 409.395 222.176L404.165 222.426L348.385 225.914C347.314 225.932 344.485 226.002 343.91 226.968C343.424 227.781 344.022 229.51 344.244 230.4L345.645 236.131C345.937 237.489 346.179 239.046 347.192 240.066C348.068 240.948 350.195 241.8 351.373 242.326L357.848 245.413L370.548 252.183L378.018 256.861C386.537 262.183 396.807 271.147 403.645 278.493L417.545 294.441C422.082 299.746 426.622 304.951 431.558 309.89C435.985 314.321 439.673 317.777 445.254 320.777C457.915 327.587 473.876 328.908 489.584 329.018C490.581 328.994 491.55 328.915 492.299 328.704C493.153 328.136 493.563 327.403 494.113 326.804C494.862 325.987 495.876 325.304 496.899 324.842C501.533 322.749 507.294 324.84 508.975 329.598C509.279 330.464 509.554 331.492 509.493 332.41C509.381 334.125 509.214 335.527 508.252 337.029C505.872 340.749 500.957 342.044 496.899 340.219C495.866 339.753 494.825 339.062 494.079 338.227C493.528 337.609 492.311 336.329 492.299 336.316C492.29 336.316 487.821 336.081 486.156 336.025V336.008C475.416 335.527 464.781 334.468 454.717 332.212C448.733 330.869 442.858 328.552 437.783 325.083L433.052 321.492C432.118 320.705 431.169 319.583 430.063 319.108C429.008 318.654 427.708 318.614 426.577 318.612H421.099L417.114 318.363C375.279 316.414 331.7 316.836 288.62 310.476C279.324 308.343 271.965 305.218 264.714 298.854C262.49 296.903 259.933 294.089 258.172 291.699C257.676 291.024 256.26 288.767 255.478 288.652C254.626 288.53 253.837 289.855 253.423 290.454L248.933 296.683C244.09 303.145 239.154 308.034 232.092 312.028C230.332 313.022 228.481 313.85 226.614 314.622C225.635 315.026 224.412 315.38 223.879 316.379C223.531 317.034 223.618 318.579 223.625 319.359L224.101 325.34L225.575 343.281C227.445 362.847 229.537 382.344 232.162 401.84L235.1 420.28L236.55 428.503L235.329 437.972V440.962C235.332 441.954 235.362 444.361 236.184 445.004C236.941 445.597 238.255 444.969 239.065 444.7L268.2 433.636C271.497 432.318 278.027 429.714 280.626 427.566C282.262 426.213 281.954 423.541 282.252 421.526C282.92 417.013 283.846 413.163 285.945 409.066C286.939 407.125 288.51 404.725 289.937 403.086C296.748 395.246 305.989 392.291 316.012 391.601L318.502 391.374L491.056 391.418C494.76 391.412 495.636 390.569 498.205 388.109L501.556 384.781C502.398 383.947 504.824 381.75 505.193 380.799C505.617 379.682 504.921 378.465 505.193 376.374C505.752 372.156 508.401 369.384 512.503 368.304C515.293 367.866 517.99 368.255 520.322 369.912C524.585 372.939 525.228 379.162 522.163 383.233C520.244 385.779 517.393 386.786 514.29 386.746C513.515 386.768 511.962 386.513 511.386 386.746C510.524 387.022 508.964 388.728 508.258 389.427L502.003 395.584C499.052 398.188 495.151 399.155 491.279 399.161L319.747 399.099L317.257 399.326C309.346 399.879 304.014 401.197 297.834 406.507C295.742 408.304 293.625 410.793 292.435 413.302C291.055 416.208 290.151 420.801 290.114 424.018V433.237L291.015 443.205C291.16 444.01 291.72 446.501 293.035 445.742C293.956 445.208 293.906 442.729 294.073 441.71V439.716L294.915 429.5C295.393 425.475 295.779 419.589 297.664 416.044C300.954 409.861 308.141 408.296 314.518 407.534L511.564 407.209C514.791 407.203 515.553 406.472 517.791 404.338L520.71 401.451C521.443 400.728 523.556 398.822 523.878 397.997C524.247 397.028 523.64 395.972 523.878 394.159C524.364 390.499 526.672 388.094 530.244 387.158C532.674 386.778 535.023 387.116 537.054 388.553C540.767 391.178 541.327 396.577 538.657 400.108C536.986 402.317 534.503 403.19 531.801 403.156C531.126 403.175 529.773 402.954 529.271 403.156C528.52 403.396 527.162 404.875 526.547 405.481L521.099 410.822C518.529 413.081 515.131 413.92 511.759 413.926L322.237 413.801L318.004 414.05C313.589 414.057 307.51 414.947 304.754 418.785C302.48 421.949 302.109 427.424 301.639 431.244L300.812 441.211L300.593 443.454C300.593 444.404 301.093 446.97 302.54 446.402C303.327 446.093 303.636 444.932 303.845 444.202L305.252 438.221L306.45 432.241C307.471 427.128 308.611 423.123 314.269 421.566C315.596 421.199 316.63 421.035 318.004 421.027L534.441 420.848C535.404 420.848 537.359 420.679 538.099 421.282C538.997 422.012 538.933 424.018 538.923 425.084L538.674 428.822V445.019C538.642 447.668 537.904 448.004 535.437 448.009L422.5 447.441C417.871 447.449 414.434 450.406 410.796 452.918C406.672 455.761 404.033 457.219 399.092 458.241C396.079 458.861 391.487 459.148 388.384 459.153L333.194 459.651C332.462 459.661 331.658 459.646 331.138 460.257C330.627 460.857 330.704 461.896 330.704 462.641C330.704 474.574 333.194 499.054 319 504.874C316.844 505.601 314.301 505.998 312.028 506H229.104C226.27 505.995 221.837 505.317 219.651 503.426C217.256 501.358 216.053 497.341 215.624 494.288L214.638 483.822L213.665 469.12L213.416 461.645L213.167 457.409V449.684L212.918 445.448V416.791L213.167 413.053V396.856L213.416 392.62V388.384L213.665 384.397V379.164L213.904 376.174V373.184L214.163 368.947V365.957L214.412 361.472L214.661 357.485L215.159 350.009V347.767L215.614 343.281L216.197 335.556L216.653 328.081L216.155 320.854L215.883 314.625L215.657 312.133V309.143L215.418 306.402V303.66L215.159 299.424V284.224L215.634 278.244C216.12 271.184 216.939 263.885 219.748 257.312C221.449 253.327 223.593 250.658 225.854 247.095C228.733 242.553 231.136 238.202 233.524 233.39C235.404 229.602 237.212 224.947 238.567 220.93C239.794 217.29 240.783 213.622 242.628 210.215C245.283 205.309 247.706 202.8 252.014 199.351L255.749 196.508C256.287 196.107 257.193 195.464 257.325 194.766C257.514 193.764 255.512 192.035 254.858 191.277C253.722 189.964 250.661 186.049 249.275 185.518C248.423 185.192 246.523 185.307 245.539 185.297L243.049 185.07L237.073 184.798L234.582 184.572L228.357 184.3L220.388 183.802L208.933 183.303L201.961 182.581C197.638 181.544 194.692 178.357 194.5 173.834C195.268 163.866 198.696 152.031 200.803 142.187C201.405 139.524 202.006 136.777 203.998 134.754C207.327 131.375 215.253 131.059 219.89 130.371L262.473 124.495C264.136 124.478 265.842 124.373 267.453 124.854C271.748 126.135 273.985 129.895 274.167 134.213C274.274 136.753 272.864 143.356 272.336 146.174L268.051 168.103L266.37 176.077C266.076 177.377 265.543 179.055 266.098 180.313C266.529 181.29 268.449 184.208 269.684 183.759C270.382 183.507 271.664 181.706 272.152 181.061L277.449 173.834L287.295 159.381L290.375 151.656L294.599 140.941C303.783 118.664 312.885 99.0655 325.425 78.3956C332.198 67.2271 341.235 54.0125 350.377 44.7553C354.991 40.0832 360.624 35.0071 366.563 32.1116C386.703 23.7919 426.32 20.6258 464.137 20.4412C467.083 20.4371 469.911 19.4039 472.084 17.4139L474.125 15.225C474.747 14.5708 476.489 12.7595 476.762 12.0152C476.969 11.443 476.568 9.53149 476.566 8.60485C476.56 3.83052 479.431 0.917268 484.105 0.0666631ZM246.351 472.135C245.823 470.887 243.574 470.296 242.359 470.518C241.373 471.223 241.557 471.989 241.555 473.107L241.306 478.091V494.288C241.306 495.033 241.229 496.072 241.739 496.673C242.409 497.46 245.405 497.537 246.142 496.845C246.809 496.214 246.782 494.413 246.784 493.541V485.068L246.535 481.081V474.104C246.535 473.536 246.57 472.651 246.351 472.135ZM234.896 486.92C234.376 486.309 233.571 486.324 232.839 486.369H224.649C223.372 487.032 223.613 488.044 223.625 489.305C223.648 491.208 223.987 495.143 225.642 496.284C227.403 497.495 230.757 497.288 232.839 497.278C233.534 497.273 234.413 497.323 234.973 496.845C235.715 496.214 235.578 494.926 235.578 494.039L235.329 488.806C235.32 488.168 235.334 487.435 234.896 486.92ZM284.137 472.913C283.141 472.853 282.143 472.813 281.159 472.913C280.699 473.167 280.489 473.182 280.195 473.663C279.727 474.428 279.904 478.001 279.904 479.088V494.537C279.917 497.086 280.484 497.273 282.892 497.278C285.766 497.283 286.623 497.458 286.628 494.288V478.091C286.628 476.997 286.939 473.78 286.022 473.15C285.544 472.823 284.7 472.861 284.137 472.913ZM260.154 473.431C259.457 472.323 256.424 472.564 255.251 472.684C254.766 472.796 254.302 472.853 253.941 473.247C253.267 473.985 253.508 477.478 253.508 478.589V494.288C253.513 496.944 253.839 497.276 256.496 497.278C259.679 497.283 260.475 497.179 260.48 493.79V475.599C260.478 474.954 260.503 473.989 260.154 473.431ZM298.538 473.185C297.978 472.345 295.981 472.579 295.104 472.716C294.644 472.918 294.434 472.933 294.141 473.414C293.685 474.161 293.849 477.084 293.849 478.091V494.537C293.849 495.088 293.797 495.985 294.103 496.454C294.753 497.445 297.617 497.463 298.396 496.635C298.912 496.087 298.83 494.996 298.83 494.288V475.35C298.83 474.732 298.884 473.708 298.538 473.185ZM272.682 475.599C272.677 472.858 272.02 472.28 269.206 472.716C268.746 472.918 268.536 472.933 268.243 473.414C267.787 474.161 267.951 477.084 267.951 478.091V494.288C267.951 494.978 267.872 496.105 268.384 496.63C269.035 497.296 271.846 497.216 272.391 496.424C272.742 495.913 272.682 494.899 272.682 494.288V475.599ZM234.849 472.168C234.296 471.371 233.459 471.375 232.59 471.418H223.887C223.446 471.669 223.227 471.687 222.923 472.168C222.692 472.677 222.871 475.786 222.923 476.596L223.105 479.088C223.239 480.994 222.981 482.033 225.368 482.078H233.088C233.678 482.068 234.478 482.088 234.931 481.644C235.414 481.171 235.327 480.217 235.329 479.586V474.602C235.319 473.85 235.289 472.803 234.849 472.168ZM231.908 459.9C230.802 457.76 230.732 456.031 227.859 456.235C226.452 456.434 223.12 456.078 222.403 457.217C221.843 458.169 222.375 460.675 222.403 461.894C222.385 463.17 222.209 466.636 223.205 467.476C223.725 467.914 224.482 467.869 225.12 467.874H230.349C231.338 467.872 234.789 467.805 235.324 467.02C236.116 465.854 234.762 464.274 234.122 463.389C233.315 462.273 232.54 461.126 231.908 459.9ZM227.254 442.393C226.506 441.767 224.32 441.922 223.381 442.066C222.199 442.569 222.156 442.966 222.131 444.202V450.431C222.144 451.264 222.131 452.138 222.936 452.632C223.693 453.095 225.025 452.891 225.867 452.779C227.537 452.559 229.256 453.072 229.061 450.68L228.12 444.949C228.026 444.12 227.941 442.968 227.254 442.393ZM332.761 432.298C332.081 431.396 330.961 431.496 329.957 431.528H324.479C322.504 431.847 320.494 431.74 318.502 431.742C317.815 431.742 316.714 431.655 316.196 432.176C315.748 432.624 315.773 433.397 315.763 433.985C315.751 435.047 315.542 438.101 316.196 438.842C316.786 439.512 317.935 439.462 318.751 439.467L328.214 439.218C329.155 439.218 331.673 439.365 332.39 438.926C333.314 438.361 333.192 437.162 333.194 436.228C333.197 435.194 333.374 433.108 332.761 432.298ZM381.377 432.099C380.705 431.399 379.654 431.496 378.765 431.53H367.559C367.074 431.68 366.61 431.738 366.249 432.131C365.597 432.844 365.809 435.702 365.816 436.726C365.821 437.356 365.772 438.104 366.215 438.612C366.782 439.268 367.766 439.213 368.555 439.218H377.769C378.71 439.218 380.685 439.39 381.397 438.784C382.104 438.184 382 437.067 382.003 436.228C382.005 435.069 382.209 432.963 381.377 432.099ZM357.242 432.099C356.548 431.404 355.512 431.496 354.61 431.545H341.666C339.754 432.412 340.147 434.715 340.167 436.477C340.177 437.237 340.18 438.266 340.792 438.819C341.322 439.298 342.236 439.215 342.906 439.218H355.357C357.77 439.183 357.845 438.381 357.848 436.228C357.85 435.076 358.084 432.941 357.242 432.099ZM228.001 426.943C227.239 426.293 224.161 426.457 223.155 426.616C221.89 427.214 221.9 428.224 221.882 429.5V433.985C221.892 434.752 221.94 436.238 222.525 436.791C222.998 437.237 223.767 437.214 224.372 437.224C225.266 437.237 227.069 437.371 227.752 436.791C228.439 436.208 228.319 435.288 228.379 434.483L228.606 429.001C228.596 428.269 228.611 427.464 228.001 426.943ZM225.762 411.102C225.135 410.686 224.091 410.808 223.386 410.918C221.952 411.548 222.134 412.411 222.131 413.801V419.781C222.134 420.344 222.097 421.189 222.423 421.668C222.859 422.298 223.693 422.263 224.372 422.273C225.157 422.283 226.863 422.415 227.403 421.84C228.083 421.169 227.528 418.927 227.403 418.037L226.634 413.053C226.512 412.373 226.387 411.518 225.762 411.102ZM222.923 395.545C222.064 396.113 222.146 396.63 222.131 397.604V405.079C222.151 406.497 222.779 408.174 224.584 407.387C225.58 406.953 225.381 405.702 225.264 404.83L224.268 397.853C224.114 396.809 224.225 395.605 222.923 395.545ZM534.33 399.277C538.868 396.924 536.953 389.969 531.606 390.378C529.847 390.704 528.604 391.342 527.792 393.007C526.23 396.212 528.705 400.091 532.384 399.816C533.071 399.766 533.721 399.594 534.33 399.277ZM222.629 388.135C222.231 389.136 222.161 390.228 223.127 390.876C223.125 389.752 223.212 389.139 222.629 388.135ZM517.194 382.275C522.404 379.562 520.206 371.545 514.067 372.016C512.047 372.392 510.62 373.127 509.688 375.047C507.894 378.742 510.736 383.212 514.96 382.896C515.749 382.839 516.495 382.64 517.194 382.275ZM505.05 329.799C503.807 328.007 501.952 327.427 499.813 327.656C498.76 327.899 497.91 328.27 497.125 329.015C493.594 332.376 496.686 338.248 501.687 337.337C505.639 336.618 506.826 332.358 505.05 329.799ZM269.196 221.678C267.812 221.663 265.71 221.539 264.465 222.047C260.877 223.515 259.079 229.159 258.207 232.642C256.999 237.476 255.508 245.939 255.5 250.833V260.053C255.545 263.736 256.822 270.907 257.848 274.506C258.792 277.822 260.197 281.005 261.94 283.975C263.344 286.367 265.259 288.983 267.204 290.952C276.629 300.496 289.342 303.815 302.316 305.113L312.028 305.945L331.7 307.421L342.408 308.168L344.898 308.395L350.377 308.644L353.614 308.893L359.591 309.143L363.326 309.392L367.808 309.641L375.528 309.89L379.761 310.139L384.742 310.388L392.461 310.638L396.197 310.887L412.881 311.385C415.008 311.385 419.505 311.585 421.348 311.136C421.031 309.651 420.284 309.035 419.336 307.897L414.978 302.913L408.441 295.687L400.657 286.965L396.219 282.48C381.741 266.93 365.266 257.05 346.143 248.264L334.191 242.714C325.749 239.051 317.18 235.787 308.541 232.63C299.811 229.438 290.916 226.582 281.896 224.327C278.93 223.584 271.921 221.71 269.196 221.678ZM372.54 38.7748C370.978 38.3663 370.184 38.8946 368.804 39.5848C365.951 41.0126 364.451 42.306 362.081 44.3617C360.178 46.0112 358.492 47.8753 356.809 49.7391C350.3 56.943 345.643 63.0259 340.062 70.92C327.938 88.0664 314.57 114.092 306.016 133.466L297.684 153.65L293.523 163.867L286.558 174.333L275.008 190.031C273.696 191.676 272.032 193.179 270.441 194.549C269.241 195.583 268.145 196.294 267.453 197.756C268.937 198.444 269.851 198.252 271.437 198.254L279.406 198.795C285.856 199.411 292.751 200.712 298.83 202.977C303.474 204.708 307.984 207.183 311.032 211.212C309.171 211.314 306.649 210.233 304.806 209.635L296.588 207.445C289.297 205.715 279.164 204.497 271.686 204.484L267.702 204.245L264.714 204.484C261.001 204.502 256.992 205.254 254.006 207.604C252.532 208.763 250.619 210.846 249.638 212.458C247.061 216.692 244.73 226.041 242.446 231.396C240.014 237.105 237.247 242.562 233.98 247.843C231.644 251.613 228.419 255.829 226.721 259.804C224.141 265.841 223.546 272.527 223.105 278.991L222.878 281.483L222.629 286.217V297.68L222.878 301.169C222.883 302.253 222.844 306.045 223.561 306.748C224.238 307.411 225.638 306.7 226.365 306.399C228.519 305.504 231.206 303.83 233.088 302.445C239.025 298.069 242.429 293.434 246.54 287.463L250.878 280.984C251.822 279.091 250.408 275.579 249.934 273.509C249.113 269.923 248.035 262.161 248.03 258.558V251.83L248.993 241.613C249.817 235.675 250.809 229.757 253.06 224.17C254.604 220.34 257.261 216.619 261.228 215.065C263.668 214.11 265.411 214.172 267.951 214.202C273.4 214.267 284.18 216.949 289.616 218.511C300.212 221.558 310.753 225.157 320.993 229.253L333.443 234.531C334.283 234.895 336.957 236.41 337.697 235.483C337.978 235.077 337.811 234.347 337.697 233.888L336.96 230.4L333.663 215.947C331.088 204.751 329.013 193.385 327.116 182.057C326.329 177.365 324.28 164.081 324.23 159.88V154.148C324.235 150.236 325.418 144.532 326.379 140.692C327.997 134.216 330.039 127.792 332.276 121.505C338.469 104.087 346.206 87.3412 354.675 70.92L359.406 61.9492L367.858 46.998C369.116 44.8873 371.81 40.8231 372.54 38.7748ZM481.451 190.885C480.072 189.466 478.34 189.289 476.473 189.512C475.605 189.732 475.079 189.972 474.395 190.569C470.317 194.118 473.601 200.476 478.666 199.488C482.62 198.718 484.259 193.779 481.451 190.885ZM264.935 132.823C263.588 131.684 262.286 132.033 260.73 132.207L212.669 139.342C211.665 139.566 209.531 140.082 208.754 140.69C207.927 141.335 207.785 142.708 207.589 143.683L205.995 150.411C205.833 151.248 205.452 152.778 205.995 153.553C206.331 154.143 207.3 154.43 207.937 154.647C209.613 155.215 211.389 155.624 213.167 155.643C217.308 155.688 219.427 153.942 223.127 154.472C227.931 155.16 229.861 157.879 235.329 157.886C240.497 157.886 246.201 158.819 251.267 157.664C253.177 157.231 254.972 156.239 256.745 156.142C256.72 158.768 254.711 165.658 253.974 168.601C253.56 170.263 253.298 172.337 251.989 173.528C250.873 174.542 248.497 174.579 247.033 174.582L208.684 174.333C207.066 174.333 204.802 174.071 203.455 175.08C205.554 176.059 206.627 175.673 208.684 175.87L249.773 178.07C252.208 178.098 255.049 178.327 256.969 176.523C258.914 174.694 259.412 170.211 259.933 167.604L264.216 146.174L265.991 136.954C266.205 135.392 266.278 133.954 264.935 132.823ZM488.928 5.21235C487.798 3.96677 486.159 3.49325 484.513 3.6497C483.311 3.87236 482.404 4.15939 481.524 5.05393C478.361 8.26576 480.839 14.0996 485.939 13.3594C489.827 12.7956 491.547 8.09315 488.928 5.21235Z" fill="#081A41"/>
<path fill-rule="evenodd" clip-rule="evenodd" d="M449.906 341.412C454.684 341.419 459.302 343.472 462.808 346.601L466.97 351.162C467.633 351.91 468.589 353.117 469.523 353.551C470.156 353.76 471.939 353.592 472.751 353.551C474.189 353.617 475.393 353.907 476.724 354.441C477.918 354.921 479.018 355.652 479.929 356.547C485.298 361.816 483.336 371.111 475.979 373.66C474.921 374.029 473.123 374.36 472.006 374.297C466.948 374.007 462.823 370.492 462.073 365.544C461.977 364.895 461.855 364.249 461.904 363.594C461.979 362.655 462.567 360.383 462.369 359.694C462.098 358.757 460.241 356.844 459.521 356.037C456.129 352.24 454.145 349.951 448.665 349.934L313.522 349.76L309.787 349.511H300.324L296.588 349.76C288.896 349.773 280.938 350.401 273.679 353.144C268.848 354.968 264.378 357.615 261.414 361.97C254.554 376.125 256.297 391.542 256.298 405.211C256.3 405.923 256.258 406.678 256.602 407.325C256.989 408.048 257.959 408.62 258.584 409.183C259.437 409.951 260.149 410.99 260.631 412.038C262.814 416.787 260.633 422.69 255.669 424.412C254.766 424.724 253.693 425.005 252.736 424.943C250.946 424.828 249.484 424.658 247.916 423.672C244.036 421.233 242.684 416.196 244.589 412.038C245.075 410.98 245.796 409.913 246.667 409.149C247.315 408.582 248.252 408.089 248.66 407.325C249.004 406.678 248.962 405.923 248.964 405.211C249.711 385.705 249.43 368.947 253.336 361.721C259.781 347.645 276.226 343.296 290.363 342.262L294.845 341.796H297.834L300.324 341.547L449.906 341.412ZM256.277 412.27C252.771 408.652 246.645 411.82 247.596 416.945C248.346 420.994 252.79 422.21 255.46 420.391C257.329 419.117 257.934 417.216 257.695 415.025C257.442 413.945 257.054 413.075 256.277 412.27ZM476.89 359.737C475.274 358.053 473.225 357.826 471.013 358.068C469.982 358.316 469.356 358.592 468.539 359.286C463.67 363.411 467.487 370.921 473.496 369.817C478.186 368.956 480.183 363.169 476.89 359.737Z" fill="#081A41"/>
<path fill-rule="evenodd" clip-rule="evenodd" d="M520.175 22.4187C533.963 22.2605 544.791 22.6339 558.123 27.0699C561.463 28.1837 568.18 30.5946 570.71 32.7905C575.169 36.6697 578.97 50.6236 580.494 56.5911C587.097 82.404 586.838 103.401 581.651 129.366C578.514 145.066 571.323 161.975 562.918 175.562C560.691 179.15 556.011 186.997 552.431 188.839C550.654 189.756 546.277 190.073 544.209 190.117V207.836L543.577 218.594V246.438C543.564 252.741 543.317 250.59 541.009 254.772L537.872 260.993C536.904 263.208 537.543 264.663 536.885 266.688C536.367 268.277 535.228 269.46 534.944 271.118C534.14 275.858 540.478 277.908 539.599 283.142C538.96 286.933 534.912 288.711 534.906 292.001C534.906 294.571 537.315 296.02 538.011 298.33V302.759C538.403 304.386 539.377 305.386 539.175 307.189C539.017 308.626 537.961 309.771 538.03 311.619C538.1 313.258 539.244 314.6 538.846 316.682C538.517 318.409 536.955 320.346 535.905 321.744C532.882 325.769 527.949 333.85 522.13 329.142C520.466 327.794 513.383 318.574 513.029 316.682C512.655 314.695 514.091 313.473 514.123 311.619C514.154 310.163 513.313 309.043 513.086 307.822C512.63 305.411 513.977 304.354 514.256 302.127C514.496 300.228 513.718 299.241 514.705 297.064C515.552 295.184 517.557 293.621 517.285 291.369C516.855 287.907 511.334 285.597 512.251 281.243C513.041 277.497 518.234 275.447 517.348 271.118C516.994 269.378 515.748 268.163 515.103 266.688C514.06 264.315 514.907 262.885 513.75 260.36C510.923 254.178 508.171 253.716 508.159 246.438V212.266L507.526 200.242C502.422 199.35 503.731 193.553 503.731 189.484C495.535 188.794 494.118 183.94 490.019 177.46C482.822 166.089 476.345 153.103 472.652 140.124C469.148 127.809 467.232 115.526 466.359 102.787V88.8651C467.036 79.0121 468.237 69.4122 470.432 59.7553L475.27 43.3018C476.352 40.1377 478.015 35.689 480.45 33.3855C482.967 30.9934 487.192 29.6709 490.45 28.4875C498.305 25.6271 511.877 22.5199 520.175 22.4187ZM532.192 32.4868C529.7 32.316 529.277 31.9616 526.5 32.1008L511.321 33.5499C507.355 34.1891 496.072 36.3915 493.005 38.2899C489.128 40.6947 489.02 45.6117 494.877 45.0864L511.321 41.6691C518.835 40.5047 523.471 40.7579 530.927 40.7706C537.467 40.7833 544.165 42.1374 550.534 43.5676C552.956 44.1181 557.042 45.7191 559.351 44.8205C562.159 43.7257 563.923 39.0176 556.226 36.6192C547.985 34.0436 540.724 33.069 532.192 32.4868Z" fill="#081A41"/>
<path d="M265.835 221.546C270.235 220.931 274.309 222.199 278.535 223.203C285.935 224.957 293.232 227.078 300.448 229.485C312.177 233.397 323.717 237.793 335.062 242.714L347.015 248.264C359.678 254.082 374.243 262.096 384.866 271.084L388.602 274.279L391.341 276.975L395.323 280.735L397.576 283.227L402.006 287.713L410.971 297.68L413.775 300.919L419.978 307.897C420.481 308.48 422.05 310.094 421.963 310.849C421.858 311.764 420.377 311.632 419.729 311.634H408.772L405.037 311.385H403.294L399.559 311.136L384.866 310.638L381.629 310.389L375.155 310.139L371.419 309.89L364.198 309.641L360.213 309.392L354.984 309.143L350.75 308.893L347.762 308.667L342.533 308.395L336.556 307.919L312.899 306.195L305.429 305.612C293.209 304.428 280.315 302.068 270.566 294.039C255.149 281.341 253.882 258.687 256.768 240.367C257.385 236.455 258.812 229.879 260.545 226.413C261.703 224.095 263.22 222.169 265.835 221.546ZM268.85 232.251C267.486 232.899 267.296 234.773 267.03 236.131C266.514 238.762 265.839 244.715 265.835 247.344V256.066L266.061 259.056C266.557 266.268 268.081 275.146 272.19 281.234C273.116 282.609 275.028 284.56 276.293 285.644C284.75 292.896 296.763 294.413 307.421 295.48L332.323 297.453L337.552 297.929H339.794L342.284 298.178L351.747 298.677L355.233 298.926L360.711 299.175L364.447 299.424L368.929 299.673L381.38 300.172L385.115 300.421H386.858L390.594 300.665H397.312C399.611 300.448 397.606 298.485 396.924 297.68L392.158 292.447C385.823 285.256 378.711 278.881 370.921 273.295C361.03 266.203 350.106 260.731 339.047 255.742C325.965 249.839 312.469 244.758 298.954 239.946C291.885 237.429 284.927 234.721 277.538 233.24C275.387 232.809 270.895 231.925 268.85 232.251Z" fill="#E40000"/>
<path d="M49.8531 605L46.4631 592.4L32.3048 616.8L74.7796 595.6L54.639 622L18.9442 640H0L40.4807 570H59.4249L66.8031 596.8L49.8531 605ZM59.4249 640L55.2372 626.1L69.5949 607.5L78.369 640H59.4249ZM147.066 622C146.668 624.667 145.87 627.133 144.673 629.4C143.543 631.6 142.081 633.5 140.286 635.1C138.492 636.633 136.431 637.833 134.105 638.7C131.845 639.567 129.352 640 126.627 640H98.4098C95.751 640 93.3581 639.567 91.231 638.7C89.1704 637.833 87.4422 636.633 86.0463 635.1C84.7169 633.5 83.753 631.6 83.1548 629.4C82.623 627.133 82.5565 624.667 82.9554 622L90.2339 570H108.181L101.9 615.2C101.434 618.467 101.9 621.1 103.295 623.1C104.758 625.033 106.951 626 109.876 626H118.85C121.774 626 124.267 625.033 126.328 623.1C128.388 621.1 129.651 618.467 130.116 615.2L136.398 570H154.345L147.066 622ZM158.433 570H223.242L213.371 584H197.817L190.04 640H172.093L179.87 584H168.304L158.433 570ZM221.945 588C222.344 585.267 223.109 582.8 224.239 580.6C225.435 578.4 226.931 576.533 228.725 575C230.52 573.4 232.581 572.167 234.907 571.3C237.234 570.433 239.726 570 242.385 570H277.98C280.706 570 283.099 570.433 285.159 571.3C287.22 572.167 288.915 573.4 290.244 575C291.64 576.533 292.604 578.4 293.136 580.6C293.734 582.8 293.834 585.267 293.435 588L288.649 622C288.25 624.667 287.452 627.133 286.256 629.4C285.126 631.6 283.664 633.5 281.869 635.1C280.074 636.633 278.014 637.833 275.687 638.7C273.427 639.567 270.934 640 268.209 640H232.614C229.955 640 227.562 639.567 225.435 638.7C223.375 637.833 221.646 636.633 220.25 635.1C218.921 633.5 217.957 631.6 217.359 629.4C216.827 627.133 216.761 624.667 217.16 622L221.945 588ZM236.104 615.2C235.638 618.467 236.104 621.1 237.5 623.1C238.962 625.033 241.155 626 244.08 626H260.432C263.357 626 265.849 625.033 267.91 623.1C269.971 621.1 271.234 618.467 271.699 615.2L274.491 594.8C274.956 591.533 274.457 588.933 272.995 587C271.533 585 269.339 584 266.414 584H250.063C247.138 584 244.645 585 242.585 587C240.59 588.933 239.361 591.533 238.896 594.8L236.104 615.2ZM377.587 591.9L380.677 570H398.625L396.431 586L377.587 591.9ZM329.927 570H347.874L342.689 606.9L404.108 585.8L375.094 610.1L340.596 621.9L338.103 640H320.156L329.927 570ZM374.496 614.2L394.935 596.5L388.853 640H370.906L374.496 614.2ZM465.228 622C464.829 624.667 464.032 627.133 462.835 629.4C461.705 631.6 460.243 633.5 458.448 635.1C456.654 636.633 454.593 637.833 452.266 638.7C450.006 639.567 447.514 640 444.788 640H416.572C413.913 640 411.52 639.567 409.393 638.7C407.332 637.833 405.604 636.633 404.208 635.1C402.879 633.5 401.915 631.6 401.317 629.4C400.785 627.133 400.718 624.667 401.117 622L408.396 570H426.343L420.061 615.2C419.596 618.467 420.061 621.1 421.457 623.1C422.92 625.033 425.113 626 428.038 626H437.011C439.936 626 442.429 625.033 444.489 623.1C446.55 621.1 447.813 618.467 448.278 615.2L454.56 570H472.507L465.228 622ZM510.694 598.2C515.812 598.2 520.133 598.6 523.656 599.4C527.179 600.133 530.004 601.233 532.131 602.7C534.324 604.1 535.886 605.867 536.817 608C537.748 610.133 538.213 612.567 538.213 615.3C538.213 618.3 537.748 621.3 536.817 624.3C535.953 627.233 534.624 629.867 532.829 632.2C531.101 634.533 528.94 636.433 526.348 637.9C523.822 639.3 520.897 640 517.574 640H469.715L479.586 626H512.489C515.015 626 516.843 625.267 517.973 623.8C519.169 622.333 519.9 620.667 520.166 618.8C520.499 616.467 519.668 614.8 517.674 613.8C515.679 612.733 512.688 612.2 508.7 612.2H499.427C492.049 612.2 486.665 610.733 483.275 607.8C479.885 604.8 478.19 600.567 478.19 595.1C478.19 592.233 478.622 589.333 479.486 586.4C480.35 583.4 481.613 580.7 483.275 578.3C484.937 575.833 486.997 573.833 489.457 572.3C491.916 570.767 494.741 570 497.932 570H542.999L533.128 584H505.808C504.546 584 503.349 584.2 502.219 584.6C501.156 585 500.192 585.567 499.328 586.3C498.53 586.967 497.865 587.767 497.333 588.7C496.802 589.567 496.469 590.467 496.336 591.4C496.004 593.8 496.835 595.533 498.829 596.6C500.823 597.667 503.814 598.2 507.803 598.2H510.694ZM576.5 598.2C581.618 598.2 585.939 598.6 589.462 599.4C592.985 600.133 595.81 601.233 597.937 602.7C600.13 604.1 601.692 605.867 602.623 608C603.554 610.133 604.019 612.567 604.019 615.3C604.019 618.3 603.554 621.3 602.623 624.3C601.759 627.233 600.429 629.867 598.635 632.2C596.906 634.533 594.746 636.433 592.154 637.9C589.628 639.3 586.703 640 583.38 640H535.521L545.392 626H578.295C580.821 626 582.649 625.267 583.779 623.8C584.975 622.333 585.706 620.667 585.972 618.8C586.304 616.467 585.473 614.8 583.479 613.8C581.485 612.733 578.494 612.2 574.506 612.2H565.233C557.855 612.2 552.471 610.733 549.081 607.8C545.691 604.8 543.996 600.567 543.996 595.1C543.996 592.233 544.428 589.333 545.292 586.4C546.156 583.4 547.419 580.7 549.081 578.3C550.743 575.833 552.803 573.833 555.263 572.3C557.722 570.767 560.547 570 563.738 570H608.805L598.934 584H571.614C570.351 584 569.155 584.2 568.025 584.6C566.961 585 565.998 585.567 565.133 586.3C564.336 586.967 563.671 587.767 563.139 588.7C562.608 589.567 562.275 590.467 562.142 591.4C561.81 593.8 562.641 595.533 564.635 596.6C566.629 597.667 569.62 598.2 573.608 598.2H576.5ZM618.775 570H673.614L671.719 584H634.728L632.834 598H666.734L648.488 612H630.84L628.945 626H666.734L664.839 640H609.004L618.775 570ZM678.998 589.2L681.69 570H699.637L699.039 574.7L678.998 589.2ZM678.4 593.6L698.341 579.1L689.866 640H671.919L678.4 593.6ZM709.807 570H727.754L755.572 616.5L762.053 570H780L770.229 640H752.282L724.464 593.5L717.983 640H700.036L709.807 570Z" fill="#081A41"/>
<path d="M0 667.243C0 664.38 0.645648 661.811 1.93694 659.537C3.22824 657.235 4.98272 655.439 7.20038 654.147C9.44611 652.856 11.9304 652.211 14.6534 652.211C17.8536 652.211 20.6467 652.982 23.0328 654.526C25.4189 656.07 27.1593 658.26 28.2541 661.095H23.6644C22.8503 659.327 21.6713 657.965 20.1274 657.011C18.6115 656.056 16.7868 655.579 14.6534 655.579C12.6042 655.579 10.7655 656.056 9.13732 657.011C7.50917 657.965 6.23191 659.327 5.30554 661.095C4.37918 662.836 3.91599 664.885 3.91599 667.243C3.91599 669.573 4.37918 671.622 5.30554 673.391C6.23191 675.131 7.50917 676.478 9.13732 677.433C10.7655 678.387 12.6042 678.865 14.6534 678.865C16.7868 678.865 18.6115 678.401 20.1274 677.475C21.6713 676.521 22.8503 675.159 23.6644 673.391H28.2541C27.1593 676.198 25.4189 678.373 23.0328 679.917C20.6467 681.433 17.8536 682.191 14.6534 682.191C11.9304 682.191 9.44611 681.559 7.20038 680.296C4.98272 679.005 3.22824 677.222 1.93694 674.949C0.645648 672.675 0 670.106 0 667.243Z" fill="#081A41"/>
<path d="M61.8332 675.412H49.0325L46.6745 681.938H42.6322L53.2432 652.758H57.6645L68.2335 681.938H64.1912L61.8332 675.412ZM60.7384 672.296L55.4328 657.474L50.1273 672.296H60.7384Z" fill="#081A41"/>
<path d="M98.8384 681.938L91.8486 669.938H87.2167V681.938H83.385V652.59H92.8591C95.0768 652.59 96.9436 652.969 98.4594 653.726C100.003 654.484 101.154 655.509 101.912 656.8C102.67 658.092 103.049 659.565 103.049 661.222C103.049 663.243 102.46 665.025 101.281 666.569C100.13 668.113 98.3892 669.138 96.0593 669.643L103.428 681.938H98.8384ZM87.2167 666.864H92.8591C94.9364 666.864 96.4944 666.359 97.5331 665.348C98.5717 664.309 99.091 662.934 99.091 661.222C99.091 659.481 98.5717 658.134 97.5331 657.179C96.5225 656.225 94.9645 655.748 92.8591 655.748H87.2167V666.864Z" fill="#081A41"/>
<path d="M157.199 681.938L145.115 668.548V681.938H141.283V652.59H145.115V666.19L157.241 652.59H162.084L148.778 667.285L162.21 681.938H157.199Z" fill="#081A41"/>
<path d="M180.848 655.705V665.516H191.544V668.675H180.848V678.78H192.807V681.938H177.016V652.547H192.807V655.705H180.848Z" fill="#081A41"/>
<path d="M229.68 652.59L220.122 670.864V681.938H216.29V670.864L206.689 652.59H210.942L218.185 667.453L225.427 652.59H229.68Z" fill="#081A41"/>
<path d="M253.554 682.233C251.617 682.233 249.877 681.896 248.333 681.223C246.817 680.521 245.624 679.566 244.754 678.359C243.884 677.124 243.435 675.707 243.406 674.106H247.491C247.631 675.482 248.193 676.647 249.175 677.601C250.186 678.528 251.645 678.991 253.554 678.991C255.379 678.991 256.811 678.542 257.849 677.643C258.916 676.717 259.449 675.538 259.449 674.106C259.449 672.984 259.141 672.071 258.523 671.369C257.905 670.668 257.134 670.134 256.207 669.769C255.281 669.404 254.032 669.011 252.46 668.59C250.523 668.085 248.965 667.58 247.786 667.074C246.635 666.569 245.638 665.783 244.796 664.716C243.982 663.622 243.575 662.162 243.575 660.337C243.575 658.737 243.982 657.32 244.796 656.084C245.61 654.849 246.747 653.895 248.207 653.221C249.695 652.547 251.393 652.211 253.302 652.211C256.053 652.211 258.298 652.898 260.039 654.274C261.807 655.649 262.804 657.474 263.029 659.748H258.818C258.677 658.625 258.088 657.642 257.049 656.8C256.011 655.93 254.635 655.495 252.923 655.495C251.323 655.495 250.017 655.916 249.007 656.758C247.996 657.572 247.491 658.723 247.491 660.211C247.491 661.278 247.786 662.148 248.375 662.822C248.993 663.495 249.737 664.015 250.607 664.38C251.505 664.716 252.754 665.109 254.354 665.559C256.291 666.092 257.849 666.625 259.028 667.159C260.207 667.664 261.218 668.464 262.06 669.559C262.902 670.626 263.323 672.085 263.323 673.938C263.323 675.37 262.944 676.717 262.186 677.98C261.428 679.244 260.306 680.268 258.818 681.054C257.33 681.84 255.576 682.233 253.554 682.233Z" fill="#081A41"/>
<path d="M323.769 681.938L319.937 678.065C318.506 679.552 316.976 680.661 315.348 681.391C313.72 682.093 311.881 682.444 309.832 682.444C307.811 682.444 306.014 682.079 304.442 681.349C302.898 680.619 301.691 679.58 300.821 678.233C299.979 676.886 299.557 675.313 299.557 673.517C299.557 671.468 300.133 669.671 301.284 668.127C302.463 666.555 304.189 665.32 306.463 664.422C305.565 663.355 304.919 662.372 304.526 661.474C304.133 660.576 303.937 659.593 303.937 658.527C303.937 657.292 304.245 656.183 304.863 655.2C305.509 654.19 306.421 653.404 307.6 652.842C308.779 652.281 310.14 652 311.684 652C313.2 652 314.52 652.295 315.642 652.884C316.765 653.474 317.608 654.302 318.169 655.369C318.73 656.407 318.983 657.572 318.927 658.864H315.095C315.123 657.713 314.8 656.814 314.127 656.169C313.453 655.495 312.583 655.158 311.516 655.158C310.393 655.158 309.481 655.481 308.779 656.127C308.105 656.744 307.768 657.544 307.768 658.527C307.768 659.369 307.993 660.183 308.442 660.969C308.919 661.755 309.705 662.723 310.8 663.874L319.558 672.675L320.316 671.496L323.18 666.695H327.306L323.853 672.675C323.376 673.517 322.815 674.401 322.169 675.328L328.78 681.938H323.769ZM309.832 679.159C311.348 679.159 312.709 678.865 313.916 678.275C315.151 677.686 316.316 676.773 317.411 675.538L308.779 666.864C305.186 668.239 303.389 670.415 303.389 673.391C303.389 675.047 303.979 676.422 305.158 677.517C306.365 678.612 307.923 679.159 309.832 679.159Z" fill="#081A41"/>
<path d="M384.272 661.179C384.272 663.622 383.43 665.657 381.745 667.285C380.089 668.885 377.549 669.685 374.124 669.685H368.481V681.938H364.65V652.59H374.124C377.436 652.59 379.949 653.39 381.661 654.99C383.402 656.59 384.272 658.653 384.272 661.179ZM374.124 666.527C376.257 666.527 377.829 666.064 378.84 665.138C379.85 664.211 380.356 662.892 380.356 661.179C380.356 657.558 378.278 655.748 374.124 655.748H368.481V666.527H374.124Z" fill="#081A41"/>
<path d="M415.014 681.938L408.025 669.938H403.393V681.938H399.561V652.59H409.035C411.253 652.59 413.12 652.969 414.635 653.726C416.179 654.484 417.33 655.509 418.088 656.8C418.846 658.092 419.225 659.565 419.225 661.222C419.225 663.243 418.636 665.025 417.457 666.569C416.306 668.113 414.565 669.138 412.235 669.643L419.604 681.938H415.014ZM403.393 666.864H409.035C411.113 666.864 412.67 666.359 413.709 665.348C414.748 664.309 415.267 662.934 415.267 661.222C415.267 659.481 414.748 658.134 413.709 657.179C412.699 656.225 411.141 655.748 409.035 655.748H403.393V666.864Z" fill="#081A41"/>
<path d="M449.012 682.233C446.289 682.233 443.805 681.602 441.559 680.338C439.313 679.047 437.531 677.264 436.211 674.991C434.92 672.689 434.274 670.106 434.274 667.243C434.274 664.38 434.92 661.811 436.211 659.537C437.531 657.235 439.313 655.453 441.559 654.19C443.805 652.898 446.289 652.253 449.012 652.253C451.763 652.253 454.261 652.898 456.507 654.19C458.753 655.453 460.521 657.221 461.813 659.495C463.104 661.769 463.75 664.352 463.75 667.243C463.75 670.134 463.104 672.717 461.813 674.991C460.521 677.264 458.753 679.047 456.507 680.338C454.261 681.602 451.763 682.233 449.012 682.233ZM449.012 678.907C451.061 678.907 452.9 678.429 454.528 677.475C456.184 676.521 457.476 675.159 458.402 673.391C459.356 671.622 459.834 669.573 459.834 667.243C459.834 664.885 459.356 662.836 458.402 661.095C457.476 659.327 456.198 657.965 454.57 657.011C452.942 656.056 451.089 655.579 449.012 655.579C446.935 655.579 445.082 656.056 443.454 657.011C441.826 657.965 440.534 659.327 439.58 661.095C438.654 662.836 438.19 664.885 438.19 667.243C438.19 669.573 438.654 671.622 439.58 673.391C440.534 675.159 441.826 676.521 443.454 677.475C445.11 678.429 446.963 678.907 449.012 678.907Z" fill="#081A41"/>
<path d="M501.568 661.095C500.754 659.383 499.575 658.063 498.031 657.137C496.487 656.183 494.69 655.705 492.641 655.705C490.592 655.705 488.739 656.183 487.083 657.137C485.455 658.063 484.163 659.411 483.209 661.179C482.282 662.92 481.819 664.941 481.819 667.243C481.819 669.545 482.282 671.566 483.209 673.306C484.163 675.047 485.455 676.394 487.083 677.349C488.739 678.275 490.592 678.738 492.641 678.738C495.504 678.738 497.862 677.882 499.715 676.17C501.568 674.457 502.648 672.141 502.957 669.222H491.251V666.106H507.042V669.054C506.817 671.468 506.059 673.685 504.768 675.706C503.477 677.7 501.778 679.286 499.673 680.465C497.567 681.616 495.223 682.191 492.641 682.191C489.918 682.191 487.434 681.559 485.188 680.296C482.942 679.005 481.16 677.222 479.84 674.949C478.549 672.675 477.903 670.106 477.903 667.243C477.903 664.38 478.549 661.811 479.84 659.537C481.16 657.235 482.942 655.453 485.188 654.19C487.434 652.898 489.918 652.253 492.641 652.253C495.757 652.253 498.508 653.025 500.894 654.569C503.308 656.112 505.063 658.288 506.157 661.095H501.568Z" fill="#081A41"/>
<path d="M538.088 681.938L531.099 669.938H526.467V681.938H522.635V652.59H532.109C534.327 652.59 536.193 652.969 537.709 653.726C539.253 654.484 540.404 655.509 541.162 656.8C541.92 658.092 542.299 659.565 542.299 661.222C542.299 663.243 541.71 665.025 540.531 666.569C539.38 668.113 537.639 669.138 535.309 669.643L542.678 681.938H538.088ZM526.467 666.864H532.109C534.186 666.864 535.744 666.359 536.783 665.348C537.822 664.309 538.341 662.934 538.341 661.222C538.341 659.481 537.822 658.134 536.783 657.179C535.772 656.225 534.214 655.748 532.109 655.748H526.467V666.864Z" fill="#081A41"/>
<path d="M576.128 675.412H563.327L560.969 681.938H556.927L567.538 652.758H571.96L582.529 681.938H578.486L576.128 675.412ZM575.033 672.296L569.728 657.474L564.422 672.296H575.033Z" fill="#081A41"/>
<path d="M627.45 652.8V681.938H623.618V660.211L613.933 681.938H611.239L601.512 660.169V681.938H597.68V652.8H601.806L612.586 676.885L623.365 652.8H627.45Z" fill="#081A41"/>
<path d="M674.245 652.8V681.938H670.413V660.211L660.729 681.938H658.034L648.307 660.169V681.938H644.475V652.8H648.602L659.381 676.885L670.161 652.8H674.245Z" fill="#081A41"/>
<path d="M695.102 652.59V681.938H691.27V652.59H695.102Z" fill="#081A41"/>
<path d="M735.234 681.938H731.403L715.991 658.569V681.938H712.16V652.547H715.991L731.403 675.875V652.547H735.234V681.938Z" fill="#081A41"/>
<path d="M774.526 661.095C773.712 659.383 772.533 658.063 770.989 657.137C769.445 656.183 767.648 655.705 765.599 655.705C763.55 655.705 761.697 656.183 760.041 657.137C758.413 658.063 757.122 659.411 756.167 661.179C755.241 662.92 754.778 664.941 754.778 667.243C754.778 669.545 755.241 671.566 756.167 673.306C757.122 675.047 758.413 676.394 760.041 677.349C761.697 678.275 763.55 678.738 765.599 678.738C768.463 678.738 770.821 677.882 772.673 676.17C774.526 674.457 775.607 672.141 775.916 669.222H764.21V666.106H780V669.054C779.775 671.468 779.018 673.685 777.726 675.706C776.435 677.7 774.737 679.286 772.631 680.465C770.526 681.616 768.182 682.191 765.599 682.191C762.876 682.191 760.392 681.559 758.146 680.296C755.901 679.005 754.118 677.222 752.799 674.949C751.507 672.675 750.862 670.106 750.862 667.243C750.862 664.38 751.507 661.811 752.799 659.537C754.118 657.235 755.901 655.453 758.146 654.19C760.392 652.898 762.876 652.253 765.599 652.253C768.715 652.253 771.466 653.025 773.852 654.569C776.267 656.112 778.021 658.288 779.116 661.095H774.526Z" fill="#081A41"/>
</svg>
